<svg id="Group_2985" data-name="Group 2985" xmlns="http://www.w3.org/2000/svg" width="54.057" height="46.701" viewBox="0 0 54.057 46.701">
  <g id="right-quotes-symbol" transform="translate(0 0)">
    <g id="Group_133" data-name="Group 133">
      <path id="Path_737" data-name="Path 737" d="M266.073,68.385c0,.006,0,.012,0,.018a12.9,12.9,0,1,0,8.7-12.165c2.895-16.608,15.846-27.319,3.841-18.5C265.3,47.509,266.058,68.01,266.073,68.385Z" transform="translate(-266.061 -34.57)" fill="#fff"/>
      <path id="Path_738" data-name="Path 738" d="M12.88,55.534a12.82,12.82,0,0,0-4.168.7c2.9-16.608,15.847-27.319,3.841-18.5C-.759,47.509,0,68.01.012,68.385c0,.006,0,.012,0,.018A12.868,12.868,0,1,0,12.88,55.534Z" transform="translate(28.31 -34.57)" fill="#fff"/>
    </g>
  </g>
</svg>
