<svg xmlns="http://www.w3.org/2000/svg" width="160.669" height="444.136" viewBox="0 0 160.669 444.136">
  <g id="Group_2997" data-name="Group 2997" transform="translate(160.025 443.637) rotate(180)" opacity="0.2">
    <path id="Path_3586" data-name="Path 3586" d="M1224.875,745l-93.325,60.376,25.5,49.219Z" transform="translate(-1065.349 -696.722)" fill="none" stroke="#707070" stroke-width="1"/>
    <path id="Path_3587" data-name="Path 3587" d="M1197.55,710.758l67.829-109.6-9.429,165.159Z" transform="translate(-1105.854 -552.884)" fill="none" stroke="#707070" stroke-width="1"/>
    <path id="Path_3588" data-name="Path 3588" d="M1196.758,563.774l-.5,70.007,58.9-14.443Z" transform="translate(-1105.062 -405.9)" fill="none" stroke="#707070" stroke-width="1"/>
    <path id="Path_3589" data-name="Path 3589" d="M1196.26,464.29l57.964,44.009.935-58.453Z" transform="translate(-1105.062 -236.409)" fill="none" stroke="#707070" stroke-width="1"/>
    <path id="Path_3590" data-name="Path 3590" d="M1057.549,395.07l-87.311,65.17,145.275-21.16Z" transform="translate(-966.351 -167.188)" fill="none" stroke="#707070" stroke-width="1"/>
    <path id="Path_3591" data-name="Path 3591" d="M970.238,318.3l83.541,37.829,61.734-58.989Z" transform="translate(-966.351 -25.251)" fill="none" stroke="#707070" stroke-width="1"/>
    <path id="Path_3592" data-name="Path 3592" d="M1186.5,356.131l62.174-21.272-.44-37.717Z" transform="translate(-1099.072 -25.251)" fill="none" stroke="#707070" stroke-width="1"/>
    <path id="Path_3593" data-name="Path 3593" d="M970.238,478.131l27.81-83.062,59.5,17.892Z" transform="translate(-966.351 -185.08)" fill="none" stroke="#707070" stroke-width="1"/>
    <path id="Path_3594" data-name="Path 3594" d="M1042.23,615.889l60-52.115-.5,70.007Z" transform="translate(-1010.533 -405.9)" fill="none" stroke="#707070" stroke-width="1"/>
    <path id="Path_3595" data-name="Path 3595" d="M1037.148,662.206l-3.2-48.57,63.2-3.545Z" transform="translate(-1005.452 -452.217)" fill="none" stroke="#707070" stroke-width="1"/>
    <path id="Path_3596" data-name="Path 3596" d="M1033.95,788.588l37.7-52.764,25.5,49.219Z" transform="translate(-1005.452 -627.169)" fill="none" stroke="#707070" stroke-width="1"/>
    <path id="Path_3597" data-name="Path 3597" d="M1186.5,236.253l32.932,31.738,29.243-53.011Z" transform="translate(-1099.072 94.627)" fill="none" stroke="#707070" stroke-width="1"/>
    <path id="Path_3598" data-name="Path 3598" d="M1271.75,58.689l28.424,80.853.819-133.864Z" transform="translate(-1151.391 303.93)" fill="none" stroke="#707070" stroke-width="1"/>
    <path id="Path_3599" data-name="Path 3599" d="M1093.052,186.335l-40.742-13.228,40.916,43.98Z" transform="translate(-1016.719 161.707)" fill="none" stroke="#707070" stroke-width="1"/>
    <path id="Path_3600" data-name="Path 3600" d="M977.588,605.339l2.105,47.4-19.517-31.816Z" transform="translate(-960.177 -440.915)" fill="none" stroke="#707070" stroke-width="1"/>
    <path id="Path_3601" data-name="Path 3601" d="M1008.85,846.872l-33.4,29.749,11.521-38.959Z" transform="translate(-969.548 -754.54)" fill="none" stroke="#707070" stroke-width="1"/>
    <path id="Path_3602" data-name="Path 3602" d="M1090.939,1103.427,1026.2,1071.79l51.2,3.542Z" transform="translate(-1000.695 -1071.79)" fill="none" stroke="#707070" stroke-width="1"/>
  </g>
</svg>
