<svg xmlns="http://www.w3.org/2000/svg" width="81.32" height="70.301" viewBox="0 0 81.32 70.301">
  <g id="Group_2850" data-name="Group 2850" transform="translate(0.25 0.25)">
    <g id="right-quotes-symbol" transform="translate(0 0)">
      <g id="Group_133" data-name="Group 133">
        <path id="Path_737" data-name="Path 737" d="M304.527,53.83c0-.009,0-.018,0-.026a19.286,19.286,0,1,0-13.005,18.183c-4.327,24.824-23.685,40.833-5.741,27.658C305.681,85.034,304.55,54.391,304.527,53.83Z" transform="translate(-223.747 -34.57)" fill="none" stroke="#e31c25" stroke-width="0.5"/>
        <path id="Path_738" data-name="Path 738" d="M19.234,73.037a19.161,19.161,0,0,0,6.229-1.051C21.134,96.811,1.776,112.82,19.721,99.644c19.9-14.61,18.767-45.253,18.745-45.814,0-.009,0-.018,0-.026A19.234,19.234,0,1,0,19.234,73.037Z" transform="translate(0 -34.57)" fill="none" stroke="#e31c25" stroke-width="0.5"/>
      </g>
    </g>
  </g>
</svg>
