<svg xmlns="http://www.w3.org/2000/svg" width="204.975" height="95.298" viewBox="0 0 204.975 95.298">
  <path id="Path_3342" data-name="Path 3342" d="M314.895,586.449H292.085l14.445-32.884a3.389,3.389,0,0,0-.046-2.917l-14.768-31.12a3.879,3.879,0,0,0-2.909-2.158L267.52,513.5a4.244,4.244,0,0,0-1.621.014l-26.509,5.315a3.858,3.858,0,0,0-2.964,2.46l-6.983,19.222-13.805-1.449L199.522,502.5a4.542,4.542,0,0,0-3.359-2.685l-24.584-4.806a4.476,4.476,0,0,0-1.871.019l-30.613,6.61a4.55,4.55,0,0,0-3.422,3.055L122,545.217a4.491,4.491,0,0,0,.036,3.071l13.836,38.119.015.045h-22.2a1.885,1.885,0,1,0,0,3.77H314.9a1.886,1.886,0,1,0,0-3.772ZM271.98,517.812a1.071,1.071,0,0,1,1.012-.347l14.741,2.611a1.685,1.685,0,0,1,1.275.942l7.706,16.283a.158.158,0,0,1-.075.206.179.179,0,0,1-.227-.043l-4.421-5.692a1.718,1.718,0,0,0-1.246-.665l-7.2-.66a1.769,1.769,0,0,0-1.475.535,1.5,1.5,0,0,0-.406,1.421l3.238,14.12a.161.161,0,0,1-.117.19.179.179,0,0,1-.216-.093l-12.736-27.815A.893.893,0,0,1,271.98,517.812Zm-5.141-1.019a.724.724,0,0,1,1.251.069l13.87,30.293a.6.6,0,0,1-.131.7.717.717,0,0,1-.735.174l-7.311-2.275a.164.164,0,0,1-.118-.171.167.167,0,0,1,.151-.144l1.37-.166a.684.684,0,0,0,.521-.333.589.589,0,0,0,.023-.583l-10.452-20.975a.673.673,0,0,0-.419-.348.725.725,0,0,0-.559.055l-1.421.744a.182.182,0,0,1-.208-.026.153.153,0,0,1-.028-.2Zm-50.213,28.032a4.513,4.513,0,0,0,.287-2.529l32.928,3.453c2.68.281,3.723,2.339,4.075,4.636a.2.2,0,0,1-.333.185,5.41,5.41,0,0,0-3.106-1.083l-34.5-3.082Zm34.271,12,.1.012a2.925,2.925,0,0,0,1.818-.382.2.2,0,0,1,.238.025.2.2,0,0,1,.048.232c-.567,1.247-1.4,2.2-2.527,2.052l-.1-.014L212,556.168l.923-2.266Zm-74.169-56.458a1.184,1.184,0,0,1,1.172-.431l17.02,3.246a1.969,1.969,0,0,1,1.471,1.174l8.9,20.246a.2.2,0,0,1-.349.2l-5.1-7.075a1.952,1.952,0,0,0-1.441-.828l-8.315-.817a2.017,2.017,0,0,0-2.173,2.431l3.738,17.555a.2.2,0,0,1-.137.234.2.2,0,0,1-.246-.111l-14.706-34.589A1.186,1.186,0,0,1,176.729,500.372Zm-5.937-1.27a.809.809,0,0,1,1.444.087l16.016,37.666a.807.807,0,0,1-1,1.083l-8.442-2.83a.2.2,0,0,1,.037-.391l1.58-.207a.807.807,0,0,0,.628-1.139l-12.07-26.083a.81.81,0,0,0-1.131-.363l-1.639.925a.2.2,0,0,1-.276-.275Zm-41.877,49.321a.2.2,0,0,1-.385.111l-1.025-2.27a1.991,1.991,0,0,1-.06-1.507l10.114-29.727a1.961,1.961,0,0,1,1.577-1.314l15.466-2.6a3.011,3.011,0,0,1,3.3,1.863l10.9,26.408a2.885,2.885,0,0,1,.036,2.154l-1.809,5.02a.2.2,0,0,1-.221.132.2.2,0,0,1-.17-.192c-.115-3.453-2.964-6.7-6.368-5.705-1.857.544-3.143,2.527-3.887,4.706-1.022,2.989-2.559,6.849-6.621,8.219a.2.2,0,0,1-.179-.357,8.944,8.944,0,0,0,2.632-3.051,17.573,17.573,0,0,0,0-15.729,7.333,7.333,0,0,0-4.729-3.947,4.909,4.909,0,0,0-.9-.082h-8.017a4.922,4.922,0,0,0-.9.082,7.328,7.328,0,0,0-4.728,3.947,16.506,16.506,0,0,0-1.859,7.863c0,.2,0,.4.009.594a.2.2,0,0,1-.148.2C129.535,543.629,128.53,545.4,128.914,548.422Zm14.624,1.863a12.256,12.256,0,0,0,1.824-4.043.2.2,0,0,1,.2-.151h4.8a.2.2,0,0,1,.192.265,10.452,10.452,0,0,1-.773,1.808,4.552,4.552,0,0,1-2.638,2.407,1.828,1.828,0,0,1-.357.034H143.7a.2.2,0,0,1-.179-.11A.189.189,0,0,1,143.538,550.285Zm-.016-16.8a.2.2,0,0,1,.179-.109h3.078a1.916,1.916,0,0,1,.357.034,4.537,4.537,0,0,1,2.638,2.407,11.246,11.246,0,0,1,1.12,3.123.189.189,0,0,1-.041.168.193.193,0,0,1-.157.076h-4.861a.2.2,0,0,1-.2-.169,12.97,12.97,0,0,0-2.1-5.32A.2.2,0,0,1,143.522,533.487Zm-8.04,6.133a1.99,1.99,0,0,0-1.355.6.2.2,0,0,1-.227.032.193.193,0,0,1-.109-.2c.473-4.056,2.405-7.092,4.713-7.092,2.668,0,4.829,4.045,4.829,9.034s-2.161,9.034-4.829,9.034a2.873,2.873,0,0,1-1.541-.47.191.191,0,0,1-.093-.148.2.2,0,0,1,.056-.165,7.354,7.354,0,0,0,1.58-4.968C138.506,542.15,137.151,539.62,135.482,539.62Zm32.945,45.724a.2.2,0,0,1-.264.021l-7.492-5.613a3.89,3.89,0,0,0-2.5-.806l-15.876.3a2.972,2.972,0,0,0-2.723,1.822l-1.441,3.319a.2.2,0,0,1-.234.114.2.2,0,0,1-.151-.21l.375-5.059a2.89,2.89,0,0,0-.18-1.279l-7.867-21.187a.2.2,0,0,1,.109-.257.2.2,0,0,1,.262.1l9.027,18.667a2.97,2.97,0,0,0,2.8,1.709l14.323-.369a3.966,3.966,0,0,0,3.687-2.639l11.975-32.484a3.9,3.9,0,0,0-.067-2.96l-11.73-27.934a4,4,0,0,0-4.377-2.422l-15.728,2.573a2.02,2.02,0,0,1-2.338-1.806l-.291-3.17a.2.2,0,0,1,.38-.115l.873,1.631a1.991,1.991,0,0,0,2.124,1.038l17.642-3.035a3.883,3.883,0,0,0,1.949-.918l7.178-6.169a.2.2,0,0,1,.264,0,.2.2,0,0,1,.039.259l-4.394,7.058a3.921,3.921,0,0,0-.3,3.69l11.227,26.91a3.925,3.925,0,0,0,2.744,2.362l8.474,2.129a.2.2,0,0,1-.048.4h-7.33a3.974,3.974,0,0,0-3.782,2.617l-11.727,31.219a3.942,3.942,0,0,0,.562,3.861l4.836,6.379A.2.2,0,0,1,168.427,585.344Zm4.376-2.076a.79.79,0,0,1-.744-.258L166.685,577a.2.2,0,0,1-.022-.242.2.2,0,0,1,.228-.084l3.116.924a.807.807,0,0,0,.984-.487L182.4,547.253a.806.806,0,0,0-.456-1.037l-4.4-1.753a.181.181,0,0,1-.087-.225.2.2,0,0,1,.193-.148h9.95a.807.807,0,0,1,.751,1.106l-14.936,37.575A.8.8,0,0,1,172.8,583.268Zm19.662-30.482-8.5,12.683a.2.2,0,0,1-.355-.187l8.986-22.664a1.989,1.989,0,0,1,2.029-1.268l17.187,1.29a1.213,1.213,0,0,1,1.031,1.666l-6.394,15.738a.2.2,0,0,1-.387-.1l.59-5.237a2.02,2.02,0,0,0-1.9-2.245l-10.5-.569A1.967,1.967,0,0,0,192.464,552.786Zm7.181,33.662,11.126-27.275,15.353,1.032,10.257,26.243Zm65.144-.3a.187.187,0,0,1-.23.016l-6.487-4.515a3.572,3.572,0,0,0-2.163-.65l-13.749.239a2.582,2.582,0,0,0-2.356,1.466l-1.25,2.67a.173.173,0,0,1-.2.09.16.16,0,0,1-.132-.169l.326-4.069a2.174,2.174,0,0,0-.155-1.027l-6.815-17.04a.162.162,0,0,1,.1-.206.179.179,0,0,1,.226.08l7.816,15.01a2.6,2.6,0,0,0,2.43,1.375l12.4-.3A3.428,3.428,0,0,0,257.742,577l10.37-26.124a2.936,2.936,0,0,0-.056-2.38L257.9,526.031a3.515,3.515,0,0,0-3.791-1.947l-13.62,2.07a1.805,1.805,0,0,1-1.353-.32,1.542,1.542,0,0,1-.671-1.136l-.253-2.548a.164.164,0,0,1,.123-.171.178.178,0,0,1,.205.077l.756,1.313a1.773,1.773,0,0,0,1.839.835l15.28-2.443a3.462,3.462,0,0,0,1.685-.738l6.218-4.964a.186.186,0,0,1,.227,0,.155.155,0,0,1,.034.211l-3.806,5.677a2.969,2.969,0,0,0-.259,2.969l9.721,21.64a3.341,3.341,0,0,0,2.376,1.9l7.34,1.712a.159.159,0,0,1,.131.176.17.17,0,0,1-.173.144h-6.348a3.439,3.439,0,0,0-3.274,2.105L260.13,577.7a2.984,2.984,0,0,0,.487,3.1l4.188,5.13A.154.154,0,0,1,264.79,586.151Zm3.789-1.671a.714.714,0,0,1-.644-.206l-4.656-4.833a.154.154,0,0,1-.016-.2.178.178,0,0,1,.2-.067l2.7.744a.713.713,0,0,0,.853-.391l9.878-24.014a.636.636,0,0,0-.395-.836l-3.81-1.407a.144.144,0,0,1-.075-.183.173.173,0,0,1,.168-.118h8.616a.691.691,0,0,1,.579.286.592.592,0,0,1,.071.607l-12.935,30.217A.674.674,0,0,1,268.579,584.48Zm17.027-24.515-7.363,10.2a.187.187,0,0,1-.228.055.158.158,0,0,1-.081-.2l7.785-18.225a1.738,1.738,0,0,1,1.756-1.023l14.884,1.039a1.033,1.033,0,0,1,.813.46.887.887,0,0,1,.081.877L297.714,565.8a.173.173,0,0,1-.2.1.163.163,0,0,1-.131-.176l.511-4.21a1.5,1.5,0,0,0-.4-1.231,1.738,1.738,0,0,0-1.242-.574l-9.1-.458A1.752,1.752,0,0,0,285.606,559.965Z" transform="translate(-111.808 -494.923)" fill="#e31c25" fill-rule="evenodd"/>
</svg>
