<svg xmlns="http://www.w3.org/2000/svg" width="122" height="111.483" viewBox="0 0 122 111.483">
  <g id="Group_2934" data-name="Group 2934" transform="translate(229 2228.483)">
    <rect id="Rectangle_2673" data-name="Rectangle 2673" width="102" height="102" transform="translate(-229 -2219)" fill="#e31c25" opacity="0.1"/>
    <g id="Group_2933" data-name="Group 2933" transform="translate(-258.14 -2240.187)">
      <path id="Path_3417" data-name="Path 3417" d="M868.733,618.262s-21.723-10-14.092-16.935S868.733,618.262,868.733,618.262Z" transform="translate(-727.435 -510.903)" fill="#e6e6e6"/>
      <path id="Path_3418" data-name="Path 3418" d="M918.505,575.728s-9.985-32.807,4.718-31.238S918.505,575.728,918.505,575.728Z" transform="translate(-777.585 -466.035)" fill="#e6e6e6"/>
      <path id="Path_3419" data-name="Path 3419" d="M894.679,691.17l.419,5.488.007.095a25.212,25.212,0,0,0,.13,2.566c.569,5.6,3.013,8.149,5.87,8.149s5.2-2.551,5.764-8.149a25.229,25.229,0,0,0,.13-2.566l0-.076,0-.018.421-5.488Z" transform="translate(-761.039 -584.387)" fill="#e6e6e6"/>
      <path id="Path_3420" data-name="Path 3420" d="M908.751,719.542l0,.018,0,.076a25.229,25.229,0,0,1-.13,2.566H896.982a25.214,25.214,0,0,1-.13-2.566l-.007-.095Z" transform="translate(-762.787 -607.271)" fill="#fff"/>
      <path id="Path_3423" data-name="Path 3423" d="M706.859,410.3h0a1.971,1.971,0,0,0-.521-3.5l-4.523-1.442-2.485,2.154,5.486,2.908a1.971,1.971,0,0,0,2.043-.12Z" transform="translate(-604.19 -352.311)" fill="#ffb9b9"/>
      <path id="Path_3424" data-name="Path 3424" d="M614.645,300.092l2.982-3.457-11.1-12.151-5.112-11.851a3.64,3.64,0,0,0-4.151-2.107h0a3.64,3.64,0,0,0-2.422,5.226l6.672,12.851Z" transform="translate(-519.759 -243.046)" fill="#e6e6e6"/>
      <path id="Path_3425" data-name="Path 3425" d="M514.127,530.624l-.571-.887H512.5v-.387h1.266l.686,1.064Z" transform="translate(-411.924 -429.771)" fill="#3f3d56"/>
      <path id="Path_3426" data-name="Path 3426" d="M603.3,647.7h-2.224v-.387H603.3Zm-2.965,0h-2.224v-.387h2.224Zm-2.965,0h-2.224v-.387h2.224Zm-2.965,0h-2.224v-.387H594.4Zm-2.965,0h-2.224v-.387h2.224Zm-2.965,0-2.06,0-.187-.025.051-.383.175.023h2.022Zm-2.983-.124-2.2-.293.051-.383,2.2.293Zm-2.939-.39-2.2-.293.051-.383,2.2.293Zm-2.939-.391-2.2-.293.051-.383,2.2.293Zm-2.939-.39-2.2-.293.051-.383,2.2.293Z" transform="translate(-503.665 -547.735)" fill="#3f3d56"/>
      <path id="Path_3427" data-name="Path 3427" d="M349.216,521.1l-.387-.011.039-1.375,1.363.181-.051.383-.938-.124Z" transform="translate(-280.376 -421.455)" fill="#3f3d56"/>
      <path id="Path_3428" data-name="Path 3428" d="M562.536,665.36l-.387-.011.074-2.589.387.011Zm.1-3.452-.387-.011.074-2.589.387.011Zm.1-3.452-.387-.011.074-2.589.387.011Z" transform="translate(-494.001 -555.903)" fill="#3f3d56"/>
      <path id="Path_3429" data-name="Path 3429" d="M346.969,586.2l.039-1.375.387.011-.027.945.943-.073.03.386Z" transform="translate(-278.882 -474.515)" fill="#3f3d56"/>
      <path id="Path_3430" data-name="Path 3430" d="M572.611,702.779l-.03-.386,2.221-.173.03.386Zm2.961-.23-.03-.386,2.221-.173.03.386Zm2.961-.23-.03-.386,2.221-.173.03.386Zm2.961-.23-.03-.386,2.221-.173.03.386Zm2.961-.23-.03-.386,2.221-.173.03.386Zm2.961-.23-.03-.386,2.221-.173.03.386Zm2.961-.23-.03-.386,2.221-.173.03.386Zm2.961-.23-.03-.386,2.221-.173.03.386Zm2.961-.23-.03-.386,2.221-.173.03.386Zm2.961-.23-.03-.386,2.221-.173.03.386Zm2.961-.23-.03-.386,2.221-.173.03.386Zm2.961-.23-.03-.386,2.221-.173.03.386Z" transform="translate(-502.088 -591.258)" fill="#3f3d56"/>
      <path id="Path_3431" data-name="Path 3431" d="M541.47,571.128l-.03-.386.834-.065-.453-.7.325-.21.8,1.248Z" transform="translate(-435.189 -462.368)" fill="#3f3d56"/>
      <path id="Path_3432" data-name="Path 3432" d="M741.643,668.768l-1.451-2.251.325-.21,1.451,2.251Zm-1.934-3-1.451-2.251.325-.21,1.451,2.251Z" transform="translate(-635.523 -561.912)" fill="#3f3d56"/>
      <circle id="Ellipse_93" data-name="Ellipse 93" cx="13.153" cy="13.153" r="13.153" transform="translate(85.807 90.778)" fill="#fff"/>
      <path id="Path_3433" data-name="Path 3433" d="M462,488.491,442.755,454.35l-4.255,4.255,18.956,29.788Z" transform="translate(-352.234 -369.278)" fill="#3f3d56"/>
      <path id="Path_3434" data-name="Path 3434" d="M258.5,443.662l43.232-43.812,3.578,7.06L264.3,445.6Z" transform="translate(-207.451 -325.32)" fill="#3f3d56"/>
      <circle id="Ellipse_94" data-name="Ellipse 94" cx="8.704" cy="8.704" r="8.704" transform="translate(59.858 96.291)" fill="#3f3d56"/>
      <path id="Path_3435" data-name="Path 3435" d="M503.542,694.925a.194.194,0,0,0-.193.193v1.547a.194.194,0,0,0,.193.193h4.836a.194.194,0,0,0,.193-.193v-1.547a.194.194,0,0,0-.193-.193Z" transform="translate(-446.714 -587.415)" fill="#6c63ff"/>
      <path id="Path_3436" data-name="Path 3436" d="M561.042,583.425a.194.194,0,0,0-.193.193v1.547a.194.194,0,0,0,.193.193h4.836a.194.194,0,0,0,.193-.193v-1.547a.194.194,0,0,0-.193-.193Z" transform="translate(-492.926 -496.684)" fill="#6c63ff"/>
      <path id="Path_3437" data-name="Path 3437" d="M447.529,422.992H442.5v-3.869l1.934-.774,3.095,2.321Z" transform="translate(-355.635 -339.306)" fill="#3f3d56"/>
      <rect id="Rectangle_2665" data-name="Rectangle 2665" width="0.58" height="2.321" transform="matrix(0.904, -0.428, 0.428, 0.904, 86.948, 78.369)" fill="#3f3d56"/>
      <path id="Path_3438" data-name="Path 3438" d="M648.464,524.881a.192.192,0,0,0-.1.031l-3.417,2.2a.194.194,0,0,0-.058.267l.837,1.3a.194.194,0,0,0,.267.058l3.417-2.2h0a.194.194,0,0,0,.058-.267l-.837-1.3a.192.192,0,0,0-.122-.084A.2.2,0,0,0,648.464,524.881Z" transform="translate(-560.445 -449.235)" fill="#6c63ff"/>
      <path id="Path_3439" data-name="Path 3439" d="M686.814,481.445h0L682.849,462.2l4.642-.774,3.165,15.5a3.664,3.664,0,0,1-3.842,4.516Z" transform="translate(-590.95 -398)" fill="#3f3d56"/>
      <path id="Path_3440" data-name="Path 3440" d="M758.234,372.181l-4.592-.328a.387.387,0,0,1-.329-.537l6.671-15.75a.387.387,0,0,1,.288-.23l4.53-.809a.387.387,0,0,1,.428.522l-6.608,16.887A.387.387,0,0,1,758.234,372.181Z" transform="translate(-647.506 -311.199)" fill="#3f3d56"/>
      <path id="Path_3441" data-name="Path 3441" d="M543.5,252.051l3.675.387,6-15.088-3.869.58Z" transform="translate(-436.756 -192.605)" fill="#fff"/>
      <path id="Path_3442" data-name="Path 3442" d="M287.3,420.883l-4.836,4.836L275.5,395.35l3.869.58Z" transform="translate(-221.379 -321.129)" fill="#3f3d56"/>
      <path id="Path_3443" data-name="Path 3443" d="M490.994,513.2l-.835-.251a11.686,11.686,0,0,1-5.219.982,1.5,1.5,0,0,1-1.433-1.5h0a1.5,1.5,0,0,1,1.5-1.5h7.3a.745.745,0,0,1,.745.745h0a1.6,1.6,0,0,1-2.057,1.53Z" transform="translate(-430.742 -437.904)" fill="#3f3d56"/>
      <path id="Path_3444" data-name="Path 3444" d="M697.989,424.5a.85.85,0,0,0-.517.174l-5.939,4.541-6.647.867a2.721,2.721,0,0,0-2.036,2.526l7.825-1.087a5.254,5.254,0,0,0,2.939-1.261L698.546,426a.851.851,0,0,0-.557-1.495Z" transform="translate(-590.867 -367.874)" fill="#3f3d56"/>
      <path id="Path_3445" data-name="Path 3445" d="M682.989,409.5a.85.85,0,0,0-.517.174l-5.939,4.541-6.648.867a2.721,2.721,0,0,0-2.036,2.526l7.825-1.087a5.254,5.254,0,0,0,2.939-1.261L683.546,411a.851.851,0,0,0-.557-1.495Z" transform="translate(-578.815 -355.706)" fill="#3f3d56"/>
      <path id="Path_3446" data-name="Path 3446" d="M735.239,408.938a8.839,8.839,0,0,1-7.1-3.6l.78-.572a7.834,7.834,0,1,0,12.195-9.812l.725-.64a8.8,8.8,0,0,1-6.6,14.626Z" transform="translate(-627.255 -343.456)" fill="#3f3d56"/>
      <rect id="Rectangle_2666" data-name="Rectangle 2666" width="68.474" height="4.836" transform="translate(45.87 118.245)" fill="#3f3d56"/>
      <path id="Path_3447" data-name="Path 3447" d="M685.07,431.864h0a1.971,1.971,0,0,0,.269-3.527l-4.089-2.411-2.9,1.547,4.7,4.054a1.971,1.971,0,0,0,2.019.337Z" transform="translate(-587.334 -369.003)" fill="#ffb9b9"/>
      <path id="Path_3448" data-name="Path 3448" d="M545.332,429.182l2.708,1.547,16.722-12.308a5.387,5.387,0,0,0,2.29-3.658h0a5.4,5.4,0,0,0-1.95-4.986,86.918,86.918,0,0,0-13.1-8.352l-7.157,3.482c2.949,6.048,6.224,11.034,11.026,11.026Z" transform="translate(-479.939 -349.434)" fill="#fff"/>
      <path id="Path_3449" data-name="Path 3449" d="M538.333,542.319a24.422,24.422,0,0,0,8.51,5.219,1.3,1.3,0,0,0,1.454-.353h0a1.3,1.3,0,0,0-.048-1.755l-2.142-2.2-1.294-4.61c-2.779,1.374-4.6,1.066-4.961-1.812L538.1,539.2A2.411,2.411,0,0,0,538.333,542.319Z" transform="translate(-474.23 -459.02)" fill="#2f2e41"/>
      <path id="Path_3450" data-name="Path 3450" d="M489.375,451.135l4.062.193,9.285-47.777-15.958-5.126c-1.593,5.957.772,15.707,4.932,27.177Z" transform="translate(-432.916 -347.496)" fill="#fff"/>
      <circle id="Ellipse_95" data-name="Ellipse 95" cx="6.383" cy="6.383" r="6.383" transform="translate(81.731 14.091)" fill="#ffb9b9"/>
      <path id="Path_3451" data-name="Path 3451" d="M388.5,116.507l4.062,2.9,6.19-6.19-3.095-3.869Z" transform="translate(-312.193 -88.712)" fill="#ffb9b9"/>
      <path id="Path_3452" data-name="Path 3452" d="M485.349,277.117c5.01,4.082,10.48,6.766,17.215,5.609,2.035-3.254,3.538-10.108,6.093-13.057,5.58-6.438,8.347-12.176,6.577-17.409-1.721-1.125-1.645-1.123-2.9-4.836C502.491,249.246,492.964,260.355,485.349,277.117Z" transform="translate(-432.082 -224.402)" fill="#e31c25"/>
      <path id="Path_3453" data-name="Path 3453" d="M496.237,667.752a24.421,24.421,0,0,0,9.784,1.982,1.3,1.3,0,0,0,1.244-.83h0a1.3,1.3,0,0,0-.647-1.632l-2.767-1.331-2.8-3.886c-2.139,2.244-3.957,2.58-5.281,0l-.826,2.845A2.412,2.412,0,0,0,496.237,667.752Z" transform="translate(-439.842 -560.904)" fill="#2f2e41"/>
      <path id="Path_3454" data-name="Path 3454" d="M617.9,304.615l3.675-2.708-8.124-14.314L611.1,274.9a3.64,3.64,0,0,0-3.579-2.977h0A3.64,3.64,0,0,0,604,276.482l3.649,14.012Z" transform="translate(-527.401 -244.283)" fill="#e31c25"/>
      <rect id="Rectangle_2667" data-name="Rectangle 2667" width="2.128" height="11.606" transform="translate(69.668 88.269)" fill="#3f3d56"/>
      <path id="Path_3455" data-name="Path 3455" d="M638.838,192a2.351,2.351,0,0,0,2.075.829,1.779,1.779,0,0,0,1.5-1.551,2.809,2.809,0,0,0-.765-1.814,14.707,14.707,0,0,0-3.213-3.033,3.921,3.921,0,0,0-1.926-.815c-.349-.021-.7.039-1.047.024a10.578,10.578,0,0,1-1.87-.449,4.6,4.6,0,0,0-3.735.791,5.545,5.545,0,0,0-.951.927,7.144,7.144,0,0,0-1.5,3.267c-.337,1.9.084,3.986-.83,5.686,1.072-.1,1.931-.917,2.949-1.267a3.526,3.526,0,0,1,2.326.021,1.121,1.121,0,0,0,.628.117.965.965,0,0,0,.449-.328l1.947-2.118a2.456,2.456,0,0,1,1.429-.95,2.256,2.256,0,0,1,1.01.2,15.239,15.239,0,0,1,2.258,1.073" transform="translate(-545.655 -173.375)" fill="#2f2e41"/>
      <path id="Path_3456" data-name="Path 3456" d="M453.58,320.817l-.58.387,3.869,3.869,2.321-2.128-3.869-3.095Z" transform="translate(-364.063 -259.424)" fill="#3f3d56"/>
    </g>
  </g>
</svg>
